<svg viewBox="0 0 64 64" xmlns="http://www.w3.org/2000/svg"><g data-name="Outline"><path d="M22 43a1 1 0 0 0 1-1V22.955h6.591a4.732 4.732 0 0 1 4.727 4.727v4.773a1 1 0 0 0 2 0v-4.773a6.734 6.734 0 0 0-6.727-6.727H22a1 1 0 0 0-1 1V42a1 1 0 0 0 1 1Z" fill="#f6f9ff" class="fill-000000"></path><path d="M41 21.955V41h-6.591a4.733 4.733 0 0 1-4.727-4.727V31.5a1 1 0 0 0-2 0v4.773A6.734 6.734 0 0 0 34.409 43H42a1 1 0 0 0 1-1V21.955a1 1 0 0 0-2 0Z" fill="#f6f9ff" class="fill-000000"></path><path d="M32 2a30 30 0 1 0 30 30A30.034 30.034 0 0 0 32 2Zm0 58a28 28 0 1 1 28-28 28.032 28.032 0 0 1-28 28Z" fill="#f6f9ff" class="fill-000000"></path><path d="M49.655 16.793a3.172 3.172 0 1 0-3.173 3.172 3.138 3.138 0 0 0 1.264-.266 19.994 19.994 0 0 1-25.055 30.008 1 1 0 1 0-.931 1.769 21.986 21.986 0 0 0 27.469-33.125 3.127 3.127 0 0 0 .426-1.558Zm-4.344 0a1.172 1.172 0 1 1 1.171 1.172 1.172 1.172 0 0 1-1.171-1.172ZM16.793 44.035a3.157 3.157 0 0 0-.692.081A19.779 19.779 0 0 1 12 32a20.023 20.023 0 0 1 20-20 19.811 19.811 0 0 1 8.463 1.874 1 1 0 0 0 .848-1.812A21.989 21.989 0 0 0 14.39 45.16a3.141 3.141 0 0 0-.769 2.047 3.173 3.173 0 1 0 3.172-3.172Zm0 4.344a1.172 1.172 0 1 1 1.173-1.172 1.172 1.172 0 0 1-1.173 1.172Z" fill="#f6f9ff" class="fill-000000"></path></g></svg>